<svg width="30" height="47" viewBox="0 0 30 47" fill="none" xmlns="http://www.w3.org/2000/svg">
<path d="M28.5193 13.6981C28.0734 13.6981 27.7133 14.059 27.7133 14.5049V20.7741C27.7133 27.9574 21.8591 33.8021 14.6639 33.8021C7.46785 33.8021 1.6136 27.9574 1.6136 20.7741V14.5049C1.6136 14.059 1.25272 13.6981 0.806798 13.6981C0.360873 13.6981 0 14.059 0 14.5049V20.7741C0 28.575 6.14677 34.9523 13.8571 35.3735V44.8874H7.30331C6.85739 44.8874 6.49652 45.2483 6.49652 45.6942C6.49652 46.1401 6.85739 46.501 7.30331 46.501H22.0236C22.4695 46.501 22.8296 46.1401 22.8296 45.6942C22.8296 45.2483 22.4695 44.8874 22.0236 44.8874H15.4707V35.3735C23.1786 34.9523 29.3269 28.575 29.3269 20.7741V14.5049C29.3261 14.059 28.9645 13.6981 28.5193 13.6981Z" fill="#EBF2FD"/>
<path d="M14.6626 29.009C19.203 29.009 22.8968 25.3152 22.8968 20.7741V8.25716C22.8968 3.70412 19.2038 0 14.6626 0C10.1215 0 6.42773 3.70412 6.42773 8.25716V20.7741C6.42773 25.3152 10.1223 29.009 14.6626 29.009ZM8.04054 8.25716C8.04054 4.59358 11.011 1.6128 14.6626 1.6128C18.3135 1.6128 21.284 4.59358 21.284 8.25716V20.7741C21.284 24.4257 18.3143 27.3962 14.6626 27.3962C11.011 27.3962 8.04054 24.4257 8.04054 20.7741V8.25716Z" fill="#EBF2FD"/>
</svg>
